<?xml version="1.0" encoding="UTF-8"?><svg id="Layer_1" xmlns="http://www.w3.org/2000/svg" viewBox="0 0 512 512"><defs><style>.cls-1{fill:#07af56;}.cls-1,.cls-2,.cls-3,.cls-4,.cls-5,.cls-6{fill-rule:evenodd;}.cls-2{fill:#5a5b5b;}.cls-3{fill:#a1479a;}.cls-4{fill:#fcb716;}.cls-5{fill:#ee363f;}.cls-6{fill:#04a9df;}</style></defs><path class="cls-4" d="M161.69,304.39c-18.61,0-33.76,15.14-33.76,33.76s15.14,33.76,33.76,33.76,33.76-15.14,33.76-33.76-15.14-33.76-33.76-33.76"/><path class="cls-5" d="M67.36,304.39c-18.61,0-33.76,15.14-33.76,33.76s15.14,33.76,33.76,33.76,33.76-15.14,33.76-33.76-15.15-33.76-33.76-33.76"/><path class="cls-1" d="M256.02,304.39c-18.62,0-33.76,15.14-33.76,33.76s15.14,33.76,33.76,33.76,33.76-15.14,33.76-33.76-15.14-33.76-33.76-33.76"/><path class="cls-6" d="M444.68,304.39c-18.61,0-33.76,15.14-33.76,33.76s15.14,33.76,33.76,33.76,33.76-15.14,33.76-33.76-15.14-33.76-33.76-33.76"/><path class="cls-3" d="M350.35,304.39c-18.61,0-33.76,15.14-33.76,33.75s15.14,33.75,33.76,33.75,33.76-15.14,33.76-33.75-15.14-33.75-33.75-33.75"/><path class="cls-2" d="M28.5,208.74c0-21.89,17.57-38.41,39.31-38.41s39.3,16.38,39.3,38.26v33.65c0,3.42-2.38,5.81-5.96,5.81s-5.96-2.38-5.96-5.81v-9.83h-.6c-4.62,7.89-13.85,14.74-27.54,14.74-21.14,0-38.56-16.38-38.56-38.41m67,0c0-15.78-11.91-27.69-27.69-27.69s-27.69,11.91-27.69,27.69,11.91,27.69,27.69,27.69,27.69-11.91,27.69-27.69m42.29,63.27c-3.13-1.49-4.62-4.17-3.43-7.29,1.19-3.28,4.17-4.62,7.29-3.13,5.36,2.53,12.06,4.32,19.2,4.32,17.72,0,28.44-10.57,28.44-28.59v-4.91h-.6c-4.62,7.89-13.84,14.74-27.54,14.74-21.14,0-38.56-16.38-38.56-38.41s17.57-38.41,39.31-38.41,39.31,16.38,39.31,38.26v27.99c0,24.12-15.49,40.35-40.8,40.35-7.74,0-15.48-1.49-22.63-4.91m51.81-63.28c0-15.78-11.91-27.69-27.69-27.69s-27.69,11.91-27.69,27.69,11.91,27.69,27.69,27.69,27.69-11.91,27.69-27.69m27.1,0c0-21.89,17.42-38.41,39.31-38.41s39.3,16.52,39.3,38.41-17.42,38.41-39.3,38.41-39.31-16.53-39.31-38.41m67,0c0-15.78-11.91-27.69-27.69-27.69s-27.69,11.91-27.69,27.69,11.91,27.69,27.69,27.69,27.69-11.91,27.69-27.69m27.1,0c0-21.89,17.27-38.41,38.56-38.41,13.7,0,22.93,6.85,27.54,14.74h.6v-39.16c0-3.42,2.38-5.81,5.96-5.81s5.96,2.38,5.96,5.81v62.98c0,21.89-17.42,38.26-39.3,38.26s-39.31-16.53-39.31-38.41m67,0c0-15.78-11.91-27.69-27.69-27.69s-27.69,11.91-27.69,27.69,11.91,27.69,27.69,27.69,27.69-11.91,27.69-27.69m27.1,0c0-21.89,17.57-38.41,39.31-38.41s39.31,16.38,39.31,38.26v33.65c0,3.42-2.38,5.81-5.96,5.81s-5.96-2.38-5.96-5.81v-9.83h-.6c-4.62,7.89-13.84,14.74-27.54,14.74-21.14,0-38.56-16.38-38.56-38.41m67,0c0-15.78-11.91-27.69-27.69-27.69s-27.69,11.91-27.69,27.69,11.91,27.69,27.69,27.69,27.69-11.91,27.69-27.69"/></svg>