<?xml version="1.0" encoding="UTF-8"?><svg id="Layer_1" xmlns="http://www.w3.org/2000/svg" viewBox="0 0 512 512"><defs><style>.cls-1{fill:#f26b21;}.cls-1,.cls-2{fill-rule:evenodd;}.cls-2{fill:#1068b2;}</style></defs><g id="g99"><path id="path92" class="cls-2" d="M200.04,191.09c6.54,0,11.83,4.78,11.83,10.69s-5.29,10.71-11.83,10.71-11.84-4.78-11.84-10.71,5.31-10.69,11.84-10.69ZM190.15,222.98h20.01v66.78h-20.01v-66.78Z"/><path id="path93" class="cls-1" d="M80.24,260.59c-2.37,22.06-31.75,20.8-27.78-8.33,1.23-8.98,7.29-17.46,18.03-14.6,8.75,2.34,10.9,12.16,9.75,22.92ZM80.05,280.37c2.17,25.87-18.72,29.75-36.35,23.09-2.31-.88-4.46-2.29-6.56-3.02v16.86c1.85,2.45,12.71,3.87,16.55,4.1,17.6,1.04,35.24-3.17,43.15-19.29,5.31-10.8,4.04-24.62,4.04-37.66v-41.76h-20.75s0,7.9,0,7.9c-2.12-1.56-4.43-7.59-14.43-9.12-6.94-1.06-14.36.54-19.37,3.69-9.24,5.82-15.23,16.63-15.32,32.2-.08,15.38,5.48,26.7,15.57,31.62,5.55,2.7,13.56,3.51,20.07,1.63,9.08-2.64,11.4-8.56,13.42-10.24h0Z"/><path id="path94" class="cls-2" d="M382.63,260.25c-.73,4.85-2.48,9.13-4.97,11.65-2.47,2.51-7.67,4.49-12.74,3.32-10.6-2.43-10.61-14.5-10.06-22.93.6-9.07,7.39-17.02,17.73-14.73,8.97,2,11.54,12.49,10.04,22.7h0ZM334.37,290.04h20.75v-7.87c1.5.86,4.2,7.39,14.39,9.09,7.01,1.17,14.65-.37,19.68-3.64,9.26-6.04,14.77-16.45,15.08-32.2.31-14.97-4.95-27.3-15.32-31.96-8.46-3.82-20.76-3.07-28.1,3.27-2.39,2.06-5.26,5.86-5.7,6.13-.16-6.42.44-39.58-.2-42.42h-20.4c-.63,2.72-.18,43.08-.18,49.5v50.08h0Z"/><path id="path95" class="cls-2" d="M270.72,260.25c-2.77,19.92-21.72,18.64-26.46,7.35-1.68-4.04-1.61-10.54-1.29-15.35.59-9.09,7.46-17.04,17.78-14.69,8.88,2.04,11.45,12.21,9.97,22.69h0ZM222.47,290.04h20.73s.02-7.85.02-7.85c1.72,1.17,1.37,2.52,5.87,5.72,12.63,8.97,42.55,3.93,43.26-32.48.31-14.97-4.92-27.42-15.5-32.03-9.96-4.33-23.8-2.53-30.82,6.16-.71.88-1.99,2.79-2.79,3.31l-.04-42.33-20.73-.09v99.58Z"/><path id="path96" class="cls-2" d="M445.31,275.54c-11.67,0-15.98-7.32-15.96-19.14,0-11.31,4.71-19.15,15.96-19.15,12.16,0,14.44,9.81,14.44,20.11s-4.14,18.18-14.44,18.18ZM408.46,261.61c2.11,20.72,18.45,32.2,41.48,29.73,20.49-2.2,33-17.53,30.81-40.42-4.09-42.75-77.54-40.88-72.29,10.69h0Z"/><path id="path97" class="cls-1" d="M130.2,260.59c-2.68-25.74,17.53-26.35,24.98-20.26,7.28,5.96,8.91,31.73-5.94,34.89-5.06,1.08-10.98-.27-13.82-2.88-3.06-2.81-4.66-6.45-5.21-11.74ZM140.96,221.41c-21.04,2.1-33.9,16.09-31.93,39.33,1.76,21.11,17.72,32.68,40.47,30.68,21.1-1.84,33.54-16.6,31.99-39.52-1.42-20.74-18.03-32.73-40.53-30.49h0Z"/><path id="path99" class="cls-2" d="M312.25,191.09c6.54,0,11.83,4.78,11.83,10.69s-5.29,10.71-11.83,10.71-11.84-4.78-11.84-10.71,5.3-10.69,11.84-10.69ZM302.36,222.98h20v66.78h-20v-66.78Z"/></g></svg>