<?xml version="1.0" encoding="UTF-8"?><svg id="Layer_1" xmlns="http://www.w3.org/2000/svg" viewBox="0 0 512 512"><defs><style>.cls-1{fill:#34e0a1;}</style></defs><path d="M480.94,272.28c-1.41,0-2.56,1.15-2.56,2.56s1.15,2.56,2.56,2.56,2.56-1.15,2.56-2.56c0-1.41-1.15-2.56-2.56-2.56Zm0,4.71c-1.19,0-2.15-.97-2.15-2.15s.97-2.15,2.15-2.15,2.16,.97,2.16,2.15-.97,2.15-2.16,2.15Zm.83-2.59c0-.47-.33-.74-.82-.74h-.82v2.33h.4v-.84h.44l.42,.84h.43l-.47-.93c.25-.11,.41-.34,.41-.66Zm-.83,.38h-.39v-.77h.39c.27,0,.43,.14,.43,.38,0,.25-.17,.39-.43,.39Zm-308.17-28.39v-6.19h-9.48v36.8h9.48v-22.07c0-4,2.56-5.96,6.56-5.96h5.19v-8.78h-4.43c-3.47,0-6.49,1.81-7.32,6.19Zm20.63-20.74c-3.24,0-5.73,2.56-5.73,5.81s2.49,5.73,5.73,5.73,5.73-2.56,5.73-5.73c0-3.24-2.49-5.81-5.73-5.81Zm-4.73,51.36h9.46v-36.8h-9.46v36.8Zm54.54-18.4c0,10.51-8.52,19.02-19.02,19.02-4.24,0-8.08-1.39-11.17-3.74v13.92h-9.46v-47.61h9.46v3.11c3.08-2.35,6.93-3.74,11.17-3.74,10.51,0,19.02,8.52,19.02,19.02Zm-9.52,0c0-5.7-4.63-10.33-10.33-10.33s-10.33,4.63-10.33,10.33,4.63,10.33,10.33,10.33,10.33-4.62,10.33-10.33Zm173.99-3.23l-5.52-1.51c-3.63-.95-5.04-2.06-5.04-3.98s1.99-3.18,4.83-3.18,4.83,1.77,4.83,4.04v.21h8.72v-.21c0-6.68-5.45-11.17-13.56-11.17s-13.86,4.48-13.86,10.66c0,4.81,3.18,8.43,8.74,9.93l5.29,1.44c4.02,1.11,5.51,2.35,5.51,4.56,0,2.33-2.16,3.9-5.37,3.9s-5.6-2.12-5.6-5.27v-.21h-9.26v.21c0,7.55,6.08,12.83,14.78,12.83s14.48-5.15,14.48-12.25c0-3.48-1.56-8.03-8.98-10.01Zm-130.9-15.17h9.46v36.8h-9.46v-3.11c-3.08,2.35-6.93,3.74-11.17,3.74-10.51,0-19.02-8.52-19.02-19.02s8.52-19.02,19.02-19.02c4.24,0,8.08,1.39,11.17,3.74v-3.11Zm0,18.4h0c0-5.71-4.63-10.33-10.33-10.33s-10.33,4.63-10.33,10.33,4.63,10.33,10.33,10.33,10.33-4.62,10.33-10.33Zm43.63-31.5h9.46v49.9h-9.46v-3.11c-3.08,2.35-6.93,3.74-11.17,3.74-10.51,0-19.02-8.52-19.02-19.02s8.52-19.02,19.02-19.02c4.24,0,8.08,1.39,11.17,3.74v-16.22Zm0,31.5c0-5.7-4.63-10.33-10.33-10.33s-10.33,4.63-10.33,10.33,4.62,10.33,10.33,10.33,10.33-4.62,10.33-10.33Zm53.4,18.4h9.46v-36.8h-9.46v36.8Zm4.73-51.36c-3.24,0-5.73,2.56-5.73,5.81s2.49,5.73,5.73,5.73,5.73-2.56,5.73-5.73-2.49-5.81-5.73-5.81Zm79.02,32.96c0,10.51-8.52,19.02-19.02,19.02s-19.02-8.52-19.02-19.02,8.52-19.02,19.02-19.02,19.02,8.52,19.02,19.02Zm-8.69,0c0-5.7-4.63-10.33-10.33-10.33s-10.33,4.63-10.33,10.33,4.62,10.33,10.33,10.33,10.33-4.62,10.33-10.33Zm-280.94-31.5h-36.3v8.44h13.44v41.46h9.43v-41.46h13.44v-8.44h0Zm183.57,39.82l-8.42-26.72h-9.94l12.63,36.8h11.39l12.7-36.8h-9.94l-8.42,26.72Zm119.92-20.54v-6.19h-9.48v36.8h9.48v-22.07c0-4,2.56-5.96,6.56-5.96h5.19v-8.78h-4.43c-3.47,0-6.48,1.81-7.32,6.19Z"/><circle class="cls-1" cx="76.89" cy="256" r="48.39"/><path d="M106.79,246.56l5.84-6.35h-12.95c-6.48-4.43-14.31-7.01-22.78-7.01s-16.26,2.58-22.74,7.01h-12.98l5.84,6.35c-3.58,3.27-5.82,7.97-5.82,13.19,0,9.86,7.99,17.85,17.85,17.85,4.68,0,8.95-1.81,12.13-4.76l5.72,6.23,5.72-6.22c3.18,2.95,7.45,4.75,12.13,4.75,9.86,0,17.86-7.99,17.86-17.85,0-5.23-2.24-9.93-5.82-13.19Zm-47.74,25.27c-6.67,0-12.08-5.41-12.08-12.08s5.41-12.08,12.08-12.08,12.08,5.41,12.08,12.08-5.41,12.08-12.08,12.08Zm17.85-12.43c0-7.95-5.78-14.77-13.41-17.69,4.13-1.72,8.65-2.68,13.4-2.68s9.28,.96,13.41,2.68c-7.62,2.92-13.4,9.74-13.4,17.69Zm17.85,12.43c-6.67,0-12.08-5.41-12.08-12.08s5.41-12.08,12.08-12.08,12.08,5.41,12.08,12.08-5.41,12.08-12.08,12.08Zm0-18.42c-3.5,0-6.33,2.83-6.33,6.33s2.83,6.33,6.33,6.33,6.33-2.83,6.33-6.33c0-3.49-2.83-6.33-6.33-6.33Zm-29.37,6.34c0,3.5-2.83,6.33-6.33,6.33s-6.33-2.83-6.33-6.33,2.83-6.33,6.33-6.33c3.5,0,6.33,2.83,6.33,6.33Z"/></svg>